<svg width="30" height="30" viewBox="0 0 30 30" fill="none" xmlns="http://www.w3.org/2000/svg">
<path d="M16.9246 16.2451L16.9246 16.2451L16.9229 16.2445L12.7229 14.7794L12.7229 14.7794L12.7207 14.7786C12.3079 14.6367 11.8778 14.4312 11.5489 14.0646C11.2304 13.7096 10.9651 13.1569 10.9651 12.2375C10.9651 10.7519 12.1399 9.55615 13.5349 9.55615H16.1582C17.7234 9.55615 19.0349 10.8804 19.0349 12.5445C19.0349 12.8404 18.7844 13.091 18.4884 13.091C18.1925 13.091 17.9419 12.8404 17.9419 12.5445C17.9419 11.5425 17.1857 10.6492 16.1582 10.6492H13.5349C12.6633 10.6492 12.0582 11.4157 12.0582 12.2375C12.0582 12.6377 12.1083 12.9998 12.328 13.2812C12.5398 13.5526 12.8491 13.6617 13.0664 13.7383L13.0755 13.7416L13.0772 13.7422L17.2772 15.2073L17.2772 15.2073L17.2794 15.208C17.6921 15.3499 18.1222 15.5555 18.4511 15.922C18.7697 16.277 19.0349 16.8297 19.0349 17.7491C19.0349 19.2472 17.8615 20.4305 16.4651 20.4305H13.8419C12.2767 20.4305 10.9651 19.1063 10.9651 17.4422C10.9651 17.1462 11.2157 16.8956 11.5117 16.8956C11.8076 16.8956 12.0582 17.1462 12.0582 17.4422C12.0582 18.4442 12.8143 19.3375 13.8419 19.3375H16.4651C17.3368 19.3375 17.9419 18.571 17.9419 17.7491C17.9419 17.3489 17.8917 16.9869 17.6721 16.7055C17.4603 16.434 17.151 16.3249 16.9337 16.2483L16.9246 16.2451Z" fill="#2E2F38" stroke="#2E2F38"/>
<path d="M15 21.8256C14.7041 21.8256 14.4535 21.575 14.4535 21.2791V8.72095C14.4535 8.425 14.7041 8.17444 15 8.17444C15.296 8.17444 15.5465 8.425 15.5465 8.72095V21.2791C15.5465 21.575 15.296 21.8256 15 21.8256Z" fill="#2E2F38" stroke="#2E2F38"/>
<path d="M15 29.5C7.00172 29.5 0.5 22.9983 0.5 15C0.5 7.00172 7.00172 0.5 15 0.5C15.2959 0.5 15.5465 0.750561 15.5465 1.04651C15.5465 1.34246 15.2959 1.59302 15 1.59302C7.60758 1.59302 1.59302 7.60758 1.59302 15C1.59302 22.3924 7.60758 28.407 15 28.407C22.3924 28.407 28.407 22.3924 28.407 15C28.407 14.704 28.6575 14.4535 28.9535 14.4535C29.2494 14.4535 29.5 14.704 29.5 15C29.5 22.9983 22.9983 29.5 15 29.5Z" fill="#2E2F38" stroke="#2E2F38"/>
<path d="M22.5233 6.97672V7.47672H23.0233H27.5582C27.8542 7.47672 28.1047 7.72728 28.1047 8.02323C28.1047 8.31918 27.8542 8.56974 27.5582 8.56974H21.9768C21.6809 8.56974 21.4303 8.31918 21.4303 8.02323V2.44184C21.4303 2.14589 21.6809 1.89532 21.9768 1.89532C22.2728 1.89532 22.5233 2.14589 22.5233 2.44184V6.97672Z" fill="#2E2F38" stroke="#2E2F38"/>
<path d="M21.9761 8.5697C21.8364 8.5697 21.7007 8.51976 21.5901 8.40917C21.3807 8.19978 21.3807 7.84659 21.5901 7.6372L28.5668 0.66046C28.7762 0.451071 29.1294 0.451071 29.3388 0.66046L29.6923 0.306906L29.3388 0.66046C29.5482 0.869849 29.5482 1.22303 29.3388 1.43242L29.6923 1.78598L29.3388 1.43242L22.362 8.40917C22.2515 8.51976 22.1157 8.5697 21.9761 8.5697Z" fill="#2E2F38" stroke="#2E2F38"/>
</svg>
