<svg width="34" height="34" viewBox="0 0 34 34" fill="none" xmlns="http://www.w3.org/2000/svg">
<path d="M13.25 19.625C13.25 21.08 14.375 22.25 15.755 22.25H18.575C19.775 22.25 20.75 21.23 20.75 19.955C20.75 18.59 20.15 18.095 19.265 17.78L14.75 16.205C13.865 15.89 13.265 15.41 13.265 14.03C13.265 12.77 14.24 11.735 15.44 11.735H18.26C19.64 11.735 20.765 12.905 20.765 14.36" stroke="#2E2F38" stroke-width="2.5" stroke-linecap="round" stroke-linejoin="round"/>
<path d="M17 10.25V23.75" stroke="#2E2F38" stroke-width="2.5" stroke-linecap="round" stroke-linejoin="round"/>
<path d="M32 17C32 25.28 25.28 32 17 32C8.72 32 2 25.28 2 17C2 8.72 8.72 2 17 2" stroke="#2E2F38" stroke-width="2.5" stroke-linecap="round" stroke-linejoin="round"/>
<path d="M32 8V2H26" stroke="#2E2F38" stroke-width="2.5" stroke-linecap="round" stroke-linejoin="round"/>
<path d="M24.5001 9.5L32.0001 2" stroke="#2E2F38" stroke-width="2.5" stroke-linecap="round" stroke-linejoin="round"/>
</svg>
